<?xml version="1.0" ?><svg data-name="Layer 1" id="Layer_1" viewBox="0 0 32 32" xmlns="http://www.w3.org/2000/svg"><path d="M4.5,19a11.07,11.07,0,0,0,6.13,9.78A11.47,11.47,0,0,0,16,30.1,11.32,11.32,0,0,0,27.5,19a11,11,0,0,0-5.74-9.59A5.7,5.7,0,0,0,22,7.8,5.91,5.91,0,0,0,16,2a5.91,5.91,0,0,0-6,5.8,5.7,5.7,0,0,0,.24,1.61A11,11,0,0,0,4.5,19ZM16,4a3.9,3.9,0,0,1,4,3.8,3.9,3.9,0,0,1-4,3.8,3.9,3.9,0,0,1-4-3.8A3.9,3.9,0,0,1,16,4Zm-4.84,7.21a6.1,6.1,0,0,0,9.68,0A9,9,0,0,1,25.5,19,9.31,9.31,0,0,1,16,28.1,9.45,9.45,0,0,1,11.55,27,9.08,9.08,0,0,1,6.5,19,9,9,0,0,1,11.16,11.21Z"/></svg>