<?xml version="1.0" encoding="UTF-8" standalone="no"?>
<svg
   xmlns:dc="http://purl.org/dc/elements/1.1/"
   xmlns:cc="http://creativecommons.org/ns#"
   xmlns:rdf="http://www.w3.org/1999/02/22-rdf-syntax-ns#"
   xmlns:svg="http://www.w3.org/2000/svg"
   xmlns="http://www.w3.org/2000/svg"
   xmlns:sodipodi="http://sodipodi.sourceforge.net/DTD/sodipodi-0.dtd"
   xmlns:inkscape="http://www.inkscape.org/namespaces/inkscape"
   width="256"
   height="256"
   viewBox="0 0 256 256"
   version="1.1"
   id="svg8"
   inkscape:version="0.92.3 (2405546, 2018-03-11)"
   sodipodi:docname="gala-radar.svg"
   inkscape:export-xdpi="96"
   inkscape:export-ydpi="96">
  <g
     inkscape:label="icon"
     inkscape:groupmode="layer"
     id="layer1">
    <path
       id="path874"
       style="fill:none;stroke:#000000;stroke-width:16;stroke-linecap:round;stroke-linejoin:round;stroke-miterlimit:4;stroke-dasharray:none"
       d="M 224.97499,72.065141 A 111.96707,111.96707 0 0 1 207.18133,207.22135 111.96707,111.96707 0 0 1 72.025105,225.01501 111.96707,111.96707 0 0 1 19.856764,99.069471 111.96707,111.96707 0 0 1 128.00866,16.081608"
       inkscape:connector-curvature="0" />
    <path
       style="fill:none;stroke:#000000;stroke-width:16;stroke-linecap:round;stroke-linejoin:round;stroke-miterlimit:4;stroke-dasharray:none;stroke-opacity:1"
       d="M 128.00866,16.081615 V 112.05339"
       id="path877"
       sodipodi:nodetypes="cc"
       inkscape:connector-curvature="0" />
    <path
       id="path883"
       style="fill:none;stroke:#000000;stroke-width:16;stroke-linecap:round;stroke-linejoin:round;stroke-miterlimit:4;stroke-dasharray:none"
       d="m 144.00394,128.04868 a 15.995295,15.995295 0 0 1 -15.99528,15.9953 15.995295,15.995295 0 0 1 -15.99529,-15.9953 15.995295,15.995295 0 0 1 15.99529,-15.99529 15.995295,15.995295 0 0 1 15.99528,15.99529 z"
       inkscape:connector-curvature="0" />
    <path
       id="path897"
       style="fill:none;stroke:#000000;stroke-width:16;stroke-linecap:round;stroke-linejoin:round;stroke-miterlimit:4;stroke-dasharray:none"
       d="M 183.41795,96.058104 A 63.981179,63.981179 0 0 1 173.25016,173.29022 63.981179,63.981179 0 0 1 96.018049,183.45803 63.981179,63.981179 0 0 1 66.207591,111.48915 63.981179,63.981179 0 0 1 128.00866,64.067515"
       inkscape:connector-curvature="0" />
  </g>
</svg>
